<svg width="32" height="32" viewBox="0 0 32 32" fill="none" xmlns="http://www.w3.org/2000/svg">
  <!-- Wine bottle cork -->
  <rect x="12" y="4" width="8" height="6" rx="1" fill="#D4A574" stroke="#B8956A" stroke-width="0.5"/>
  
  <!-- Wine bottle neck -->
  <rect x="13" y="10" width="6" height="4" fill="#2D5016" stroke="#1A3009" stroke-width="0.5"/>
  
  <!-- Wine bottle body -->
  <path d="M10 14 C10 14 10 14 13 14 L19 14 C22 14 22 14 22 14 L22 26 C22 28 20 28 16 28 C12 28 10 28 10 26 Z" fill="#2D5016" stroke="#1A3009" stroke-width="0.5"/>
  
  <!-- Wine inside bottle -->
  <path d="M11 15 C11 15 11 15 13.5 15 L18.5 15 C21 15 21 15 21 15 L21 25 C21 26.5 19.5 26.5 16 26.5 C12.5 26.5 11 26.5 11 25 Z" fill="#722F37"/>
  
  <!-- Cork texture lines -->
  <line x1="13" y1="5.5" x2="19" y2="5.5" stroke="#B8956A" stroke-width="0.3"/>
  <line x1="13" y1="7" x2="19" y2="7" stroke="#B8956A" stroke-width="0.3"/>
  <line x1="13" y1="8.5" x2="19" y2="8.5" stroke="#B8956A" stroke-width="0.3"/>
  
  <!-- Bottle highlight -->
  <ellipse cx="14.5" cy="18" rx="1" ry="3" fill="#4A7C2A" opacity="0.6"/>
</svg>